# xmcd
#
# Track frame offsets: 
#        182
#        10132
#        19397
#        29037
#        37675
#        49002
#        62297
#        73600
#        87370
#        99577
#        113417
#        125317
#        135887
#        144852
#        155202
#        167092
#        175802
#        195267
#        208187
#        219762
#        230917
#
# Disc length: 3263 seconds
#
# Revision: 0
# Processed by: cddbd v1.4PL0 Copyright (c) Steve Scherf et al.
# Submitted via: ExactAudioCopy v0.90b4
#
DISCID=130cbd15
DTITLE=Plavci - 21 x Plavci potreti
DYEAR=1900
DGENRE=
TTITLE0=Ave Dies
TTITLE1=Jehly Spicky Sochory a Kuly
TTITLE2=Male Baby
TTITLE3=Sing-Sing
TTITLE4=Mysli na to ze prijdu
TTITLE5=Rocky top
TTITLE6=Skatule
TTITLE7=Kvety dej
TTITLE8=O malo vic
TTITLE9=Vina vina
TTITLE10=Zeneni zeneni
TTITLE11=Tece voda
TTITLE12=Cesta na tabor
TTITLE13=Dzin Hej
TTITLE14=Snadne
TTITLE15=Profesor
TTITLE16=Reka zivota
TTITLE17=Alchymista
TTITLE18=Nejmoudrejsi doktor
TTITLE19=Kazdy tyden
TTITLE20=Chvala pisni
EXTD=
EXTT0=
EXTT1=
EXTT2=
EXTT3=
EXTT4=
EXTT5=
EXTT6=
EXTT7=
EXTT8=
EXTT9=
EXTT10=
EXTT11=
EXTT12=
EXTT13=
EXTT14=
EXTT15=
EXTT16=
EXTT17=
EXTT18=
EXTT19=
EXTT20=
PLAYORDER=
